<svg width="48" height="48" viewBox="0 0 48 48" fill="none" xmlns="http://www.w3.org/2000/svg">
<circle cx="24" cy="24" r="24" fill="#FFB577" fill-opacity="0.07"/>
<path fill-rule="evenodd" clip-rule="evenodd" d="M33.2 22.6667H30.8V15.8667C30.8004 15.7571 30.7799 15.6486 30.7399 15.5473C30.6998 15.446 30.6409 15.354 30.5665 15.2766C30.4921 15.1991 30.4038 15.1377 30.3066 15.096C30.2094 15.0542 30.1052 15.0329 30 15.0333H29.6V11.8333C29.6 11.6123 29.5157 11.4004 29.3657 11.2441C29.2157 11.0878 29.0122 11 28.8 11C28.5878 11 28.3843 11.0878 28.2343 11.2441C28.0843 11.4004 28 11.6123 28 11.8333V15.0333H26.4V11.8333C26.4 11.6123 26.3157 11.4004 26.1657 11.2441C26.0157 11.0878 25.8122 11 25.6 11C25.3878 11 25.1843 11.0878 25.0343 11.2441C24.8843 11.4004 24.8 11.6123 24.8 11.8333V15.0333H23.2V11.8333C23.2 11.6123 23.1157 11.4004 22.9657 11.2441C22.8157 11.0878 22.6122 11 22.4 11C22.1878 11 21.9843 11.0878 21.8343 11.2441C21.6843 11.4004 21.6 11.6123 21.6 11.8333V15.0333H20V11.8333C20 11.6123 19.9157 11.4004 19.7657 11.2441C19.6157 11.0878 19.4122 11 19.2 11C18.9878 11 18.7843 11.0878 18.6343 11.2441C18.4843 11.4004 18.4 11.6123 18.4 11.8333V15.0333H18C17.8948 15.0329 17.7906 15.0542 17.6934 15.096C17.5962 15.1377 17.5079 15.1991 17.4335 15.2766C17.3591 15.354 17.3002 15.446 17.2601 15.5473C17.2201 15.6486 17.1996 15.7571 17.2 15.8667V22.6667H14.8C14.588 22.6673 14.3849 22.7553 14.235 22.9115C14.0851 23.0676 14.0006 23.2792 14 23.5V35.1667C13.9996 35.2762 14.0201 35.3847 14.0601 35.486C14.1002 35.5873 14.1591 35.6793 14.2335 35.7568C14.3079 35.8342 14.3962 35.8956 14.4934 35.9373C14.5906 35.9791 14.6948 36.0004 14.8 36H33.2C33.3052 36.0004 33.4094 35.9791 33.5066 35.9373C33.6038 35.8956 33.6921 35.8342 33.7665 35.7568C33.8409 35.6793 33.8998 35.5873 33.9399 35.486C33.9799 35.3847 34.0004 35.2762 34 35.1667V23.5C33.9994 23.2792 33.9149 23.0676 33.765 22.9115C33.6151 22.7553 33.412 22.6673 33.2 22.6667ZM18.8 16.7H29.2V22.6667H18.8V16.7ZM15.6 24.3333H32.4V26.1333C31.8895 26.3273 31.437 26.6578 31.088 27.0917C30.72 27.4917 30.536 27.6667 30.128 27.6667C29.72 27.6667 29.544 27.4917 29.168 27.0917C28.9215 26.7524 28.6028 26.4773 28.2371 26.2879C27.8713 26.0985 27.4684 25.9999 27.06 25.9999C26.6516 25.9999 26.2487 26.0985 25.8829 26.2879C25.5172 26.4773 25.1985 26.7524 24.952 27.0917C24.584 27.4917 24.4 27.6667 23.992 27.6667C23.584 27.6667 23.408 27.4917 23.04 27.0917C22.7926 26.7524 22.4733 26.4773 22.1069 26.2879C21.7405 26.0985 21.337 25.9999 20.928 25.9999C20.519 25.9999 20.1155 26.0985 19.7491 26.2879C19.3827 26.4773 19.0634 26.7524 18.816 27.0917C18.448 27.4917 18.272 27.6667 17.864 27.6667C17.456 27.6667 17.28 27.4917 16.912 27.0917C16.5646 26.656 16.1116 26.3251 15.6 26.1333V24.3333ZM32.4 34.3333H15.6V28.0833C15.648 28.125 15.696 28.1833 15.752 28.2417C15.9994 28.581 16.3187 28.8561 16.6851 29.0455C17.0515 29.2349 17.455 29.3334 17.864 29.3334C18.273 29.3334 18.6765 29.2349 19.0429 29.0455C19.4093 28.8561 19.7286 28.581 19.976 28.2417C20.344 27.85 20.52 27.6667 20.928 27.6667C21.336 27.6667 21.52 27.85 21.88 28.25C22.1288 28.587 22.4487 28.86 22.8149 29.0479C23.1811 29.2357 23.5838 29.3334 23.992 29.3334C24.4002 29.3334 24.8029 29.2357 25.1691 29.0479C25.5353 28.86 25.8552 28.587 26.104 28.25C26.472 27.85 26.648 27.6667 27.056 27.6667C27.472 27.6667 27.648 27.85 28.016 28.25C28.2648 28.587 28.5847 28.86 28.9509 29.0479C29.3171 29.2357 29.7198 29.3334 30.128 29.3334C30.5362 29.3334 30.9389 29.2357 31.3051 29.0479C31.6713 28.86 31.9911 28.587 32.24 28.25C32.296 28.1833 32.352 28.125 32.4 28.075V34.3333Z" fill="#FFB577"/>
</svg>
