<svg width="60" height="60" viewBox="0 0 60 60" fill="none" xmlns="http://www.w3.org/2000/svg">
<path d="M29.9999 60C13.4314 60 0 46.5686 0 30.0001C0 13.4316 13.4314 0.000125885 29.9999 0.000125885C46.5684 0.000125885 59.9999 13.4316 59.9999 30.0001C59.9823 46.5612 46.5612 59.9823 29.9999 60ZM42.6341 29.0442C42.4264 28.6276 42.0888 28.2898 41.6721 28.0822V28.0715L24.5293 19.5C23.4705 18.9711 22.1836 19.4003 21.6545 20.459C21.5041 20.76 21.4266 21.0922 21.4285 21.4286V38.5714C21.428 39.7549 22.3869 40.7147 23.5704 40.7153C23.9032 40.7154 24.2316 40.6381 24.5293 40.4893L41.6721 31.9178C42.7313 31.39 43.1621 30.1034 42.6341 29.0442Z" fill="white"/>
</svg>
